<svg xmlns="http://www.w3.org/2000/svg" viewBox="0 0 1920 1080" preserveAspectRatio="none">
  <defs>
    <linearGradient id="g0" x1="0" x2="1" y1="0" y2="1">
      <stop offset="0" stop-color="#24123d"/>
      <stop offset="0.55" stop-color="#3b1f63"/>
      <stop offset="1" stop-color="#1a0f2e"/>
    </linearGradient>
    <linearGradient id="g1" x1="0" x2="1" y1="1" y2="0">
      <stop offset="0" stop-color="#6d28d9" stop-opacity="0.65"/>
      <stop offset="1" stop-color="#a855f7" stop-opacity="0.35"/>
    </linearGradient>
    <filter id="soft" x="-10%" y="-10%" width="120%" height="120%">
      <feGaussianBlur stdDeviation="0.4"/>
    </filter>
  </defs>

  <rect width="1920" height="1080" fill="url(#g0)"/>
  <path d="M0 120 L520 0 L880 260 L420 420 Z" fill="#2b1648" opacity="0.95"/>
  <path d="M520 0 L1040 40 L1320 320 L880 260 Z" fill="#351a57" opacity="0.95"/>
  <path d="M1040 40 L1920 0 L1920 360 L1320 320 Z" fill="#2a1546" opacity="0.92"/>

  <path d="M0 120 L420 420 L0 620 Z" fill="#3a1c60" opacity="0.90"/>
  <path d="M420 420 L880 260 L980 620 L520 760 Z" fill="#2c174c" opacity="0.92"/>
  <path d="M880 260 L1320 320 L1460 700 L980 620 Z" fill="#3b1f63" opacity="0.92"/>
  <path d="M1320 320 L1920 360 L1920 740 L1460 700 Z" fill="#2b1648" opacity="0.90"/>

  <path d="M0 620 L520 760 L220 1080 L0 1080 Z" fill="#291444" opacity="0.95"/>
  <path d="M520 760 L980 620 L1160 1080 L220 1080 Z" fill="#351a57" opacity="0.92"/>
  <path d="M980 620 L1460 700 L1920 1080 L1160 1080 Z" fill="#24123d" opacity="0.94"/>

  <path d="M0 0 L1920 0 L1920 1080 L0 1080 Z" fill="url(#g1)" filter="url(#soft)" opacity="0.55"/>
</svg>
